<?xml version="1.0" encoding="UTF-8" standalone="no"?>
<!-- Created with Inkscape (http://www.inkscape.org/) -->

<svg
   xmlns:dc="http://purl.org/dc/elements/1.1/"
   xmlns:cc="http://creativecommons.org/ns#"
   xmlns:rdf="http://www.w3.org/1999/02/22-rdf-syntax-ns#"
   xmlns:svg="http://www.w3.org/2000/svg"
   xmlns="http://www.w3.org/2000/svg"
   xmlns:sodipodi="http://sodipodi.sourceforge.net/DTD/sodipodi-0.dtd"
   xmlns:inkscape="http://www.inkscape.org/namespaces/inkscape"
   width="470.30859"
   height="330.17673"
   id="svg2"
   version="1.1"
   inkscape:version="0.48.2 r9819"
   sodipodi:docname="LevelCreator_class_connectivity.svg">
  <defs
     id="defs4" />
  <sodipodi:namedview
     id="base"
     pagecolor="#ffffff"
     bordercolor="#666666"
     borderopacity="1.0"
     inkscape:pageopacity="0.0"
     inkscape:pageshadow="2"
     inkscape:zoom="0.72883653"
     inkscape:cx="130.05868"
     inkscape:cy="211.27571"
     inkscape:document-units="px"
     inkscape:current-layer="g3097"
     showgrid="false"
     inkscape:window-width="1920"
     inkscape:window-height="1005"
     inkscape:window-x="-9"
     inkscape:window-y="-9"
     inkscape:window-maximized="1"
     fit-margin-top="0"
     fit-margin-left="0"
     fit-margin-right="0"
     fit-margin-bottom="0" />
  <metadata
     id="metadata7">
    <rdf:RDF>
      <cc:Work
         rdf:about="">
        <dc:format>image/svg+xml</dc:format>
        <dc:type
           rdf:resource="http://purl.org/dc/dcmitype/StillImage" />
        <dc:title></dc:title>
      </cc:Work>
    </rdf:RDF>
  </metadata>
  <g
     inkscape:label="Layer 1"
     inkscape:groupmode="layer"
     id="layer1"
     transform="translate(-241.98856,-407.28007)">
    <g
       id="g3097"
       transform="translate(104.48856,358.21757)">
      <path
         id="path2987"
         d="m 198.5,179.45 c 37,0 37,40 74,40 m -5,-5 5,5 -5,5"
         inkscape:connector-curvature="0"
         style="fill:none;stroke:#000000" />
      <path
         id="path2989"
         d="m 326.1,127.45 c -11.8,0 -23.6,32.025 -23.6,64.05 m -5,-5 5,5 5,-5"
         inkscape:connector-curvature="0"
         style="fill:none;stroke:#000000" />
      <path
         id="path2991"
         d="m 302.1,105.95 c 0,42.775 0.4,42.775 0.4,85.55 m -5,-5 5,5 5,-5"
         inkscape:connector-curvature="0"
         style="fill:none;stroke:#000000" />
      <path
         id="path2993"
         d="m 199.5,239.548 c 37,0 37,-20.098 73,-20.098 m -5,-5 5,5 -5,5"
         inkscape:connector-curvature="0"
         style="fill:none;stroke:#000000" />
      <path
         id="path2995"
         d="m 279.9,127.45 c 11.3,0 22.6,32.025 22.6,64.05 m -5,-5 5,5 5,-5"
         inkscape:connector-curvature="0"
         style="fill:none;stroke:#000000" />
      <path
         id="path2999"
         d="m 332.5,219.45 c 62,0 68,-111 129,-111 m -5,-5 5,5 -5,5"
         inkscape:connector-curvature="0"
         style="fill:none;stroke:#000000"
         sodipodi:nodetypes="ccccc" />
      <path
         id="path3001"
         d="m 332.5,219.45 c 61.6,0 61.6,134.098 123.2,134.098 m -5,-5 5.00001,5.00013 L 450.7,358.548"
         inkscape:connector-curvature="0"
         style="fill:none;stroke:#000000" />
      <path
         id="path3003"
         d="m 332.5,219.45 c 95.7,0 95.7,20 191.4,20 m -5,-5 5.00002,5 -5.00002,5"
         inkscape:connector-curvature="0"
         style="fill:none;stroke:#000000" />
      <path
         id="path3005"
         d="m 302.5,191.5 c 0,-32.025 -11.3,-64.05 -22.6,-64.05 m 5,5 -4.99999,-5 4.99999,-5"
         inkscape:connector-curvature="0"
         style="fill:none;stroke:#000000" />
      <path
         id="path3007"
         d="m 302.5,191.5 c 0,-42.775 -0.4,-42.775 -0.4,-85.55 m 5,5 -4.99999,-5 -5.00001,5"
         inkscape:connector-curvature="0"
         style="fill:none;stroke:#000000" />
      <path
         id="path3009"
         d="m 302.5,191.5 c 0,-32.025 11.8,-64.05 23.6,-64.05 m -5,-5 5.00001,5 -5.00001,5"
         inkscape:connector-curvature="0"
         style="fill:none;stroke:#000000" />
      <path
         id="path3011"
         d="m 332.5,219.45 c 102,0 102,-75 203,-75 m -5,-5 5,5 -5,5"
         inkscape:connector-curvature="0"
         style="fill:none;stroke:#000000" />
      <path
         id="path3013"
         d="m 272.5,219.45 c -36,0 -36,20.098 -73,20.098 m 5,5 -5,-4.99985 5,-5.00015"
         inkscape:connector-curvature="0"
         style="fill:none;stroke:#000000" />
      <path
         id="path3015"
         d="m 302.5,247.4 c 0,18.525 5.8,37.05 15.8,37.05 m -5,-5 4.99999,5 -4.99999,5"
         inkscape:connector-curvature="0"
         style="fill:none;stroke:#000000" />
      <path
         id="path3017"
         d="m 302.5,247.4 c 0,18.525 -3,37.05 -13,37.05 m 5,5 -5.00001,-5 5.00001,-5"
         inkscape:connector-curvature="0"
         style="fill:none;stroke:#000000" />
      <path
         id="path3019"
         d="m 332.5,219.45 c 56,0 56,65 112,65 m -5,-5 5,5 -5,5"
         inkscape:connector-curvature="0"
         style="fill:none;stroke:#000000" />
      <ellipse
         cx="302.5"
         cy="211.5"
         rx="30"
         ry="20"
         style="fill:#bf0000;fill-opacity:0.6;stroke:#bf0000;stroke-width:2"
         id="LevelCreator"
         sodipodi:cx="302.5"
         sodipodi:cy="211.5"
         sodipodi:rx="30"
         sodipodi:ry="20"
         d="m 332.5,211.5 c 0,11.04569 -13.43146,20 -30,20 -16.56854,0 -30,-8.95431 -30,-20 0,-11.04569 13.43146,-20 30,-20 16.56854,0 30,8.95431 30,20 z" />
      <text
         id="text3022"
         x="302.5"
         y="245"
         style="text-anchor:middle;fill:#000000;fill-opacity:0.6;stroke:none"
         font="10px &quot;Arial&quot;">
        <tspan
           id="tspan3024">LevelCreator</tspan>
      </text>
      <ellipse
         cx="168.5"
         cy="171.5"
         rx="30"
         ry="20"
         style="fill:#bf001c;fill-opacity:0.6;stroke:#bf001c;stroke-width:2"
         id="WorldState"
         sodipodi:cx="168.5"
         sodipodi:cy="171.5"
         sodipodi:rx="30"
         sodipodi:ry="20"
         d="m 198.5,171.5 c 0,11.04569 -13.43146,20 -30,20 -16.56854,0 -30,-8.95431 -30,-20 0,-11.04569 13.43146,-20 30,-20 16.56854,0 30,8.95431 30,20 z" />
      <text
         id="text3027"
         x="168.5"
         y="205"
         style="text-anchor:middle;fill:#000000;fill-opacity:0.6;stroke:none"
         font="10px &quot;Arial&quot;">
        <tspan
           id="tspan3029">WorldState</tspan>
      </text>
      <ellipse
         cx="485.5"
         cy="100.5"
         rx="30"
         ry="20"
         style="fill:#b500bf;fill-opacity:0.6;stroke:#b500bf;stroke-width:2"
         id="JSONObject"
         sodipodi:cx="485.5"
         sodipodi:cy="100.5"
         sodipodi:rx="30"
         sodipodi:ry="20"
         d="m 515.5,100.5 c 0,11.04569 -13.43146,20 -30,20 -16.56854,0 -30,-8.95431 -30,-20 0,-11.045695 13.43146,-20 30,-20 16.56854,0 30,8.954305 30,20 z"
         transform="translate(6,0)" />
      <text
         id="text3032"
         x="491.5"
         y="134"
         style="text-anchor:middle;fill:#000000;fill-opacity:0.6;stroke:none"
         font="10px &quot;Arial&quot;">
        <tspan
           id="tspan3034">JSONObject</tspan>
      </text>
      <ellipse
         cx="565.5"
         cy="136.5"
         rx="30"
         ry="20"
         style="fill:#00bf2f;fill-opacity:0.6;stroke:#00bf2f;stroke-width:2"
         id="BoxDesign"
         sodipodi:cx="565.5"
         sodipodi:cy="136.5"
         sodipodi:rx="30"
         sodipodi:ry="20"
         d="m 595.5,136.5 c 0,11.04569 -13.43146,20 -30,20 -16.56854,0 -30,-8.95431 -30,-20 0,-11.04569 13.43146,-20 30,-20 16.56854,0 30,8.95431 30,20 z" />
      <text
         id="text3037"
         x="565.5"
         y="170"
         style="text-anchor:middle;fill:#000000;fill-opacity:0.6;stroke:none"
         font="10px &quot;Arial&quot;">
        <tspan
           id="tspan3039">BoxDesign</tspan>
      </text>
      <ellipse
         cx="474.5"
         cy="276.5"
         rx="30"
         ry="20"
         style="fill:#bf5600;fill-opacity:0.6;stroke:#bf5600;stroke-width:2"
         id="LevelData"
         sodipodi:cx="474.5"
         sodipodi:cy="276.5"
         sodipodi:rx="30"
         sodipodi:ry="20"
         d="m 504.5,276.5 c 0,11.04569 -13.43146,20 -30,20 -16.56854,0 -30,-8.95431 -30,-20 0,-11.04569 13.43146,-20 30,-20 16.56854,0 30,8.95431 30,20 z" />
      <text
         id="text3047"
         x="474.5"
         y="310"
         style="text-anchor:middle;fill:#000000;fill-opacity:0.6;stroke:none"
         font="10px &quot;Arial&quot;">
        <tspan
           id="tspan3049">LevelData</tspan>
      </text>
      <ellipse
         cx="353.5"
         cy="276.5"
         rx="30"
         ry="20"
         style="fill:#7cbf00;fill-opacity:0.6;stroke:#7cbf00;stroke-width:2"
         id="LoadingScreen"
         sodipodi:cx="353.5"
         sodipodi:cy="276.5"
         sodipodi:rx="30"
         sodipodi:ry="20"
         d="m 383.5,276.5 c 0,11.04569 -13.43146,20 -30,20 -16.56854,0 -30,-8.95431 -30,-20 0,-11.04569 13.43146,-20 30,-20 16.56854,0 30,8.95431 30,20 z" />
      <text
         id="text3052"
         x="353.5"
         y="310"
         style="text-anchor:middle;fill:#000000;fill-opacity:0.6;stroke:none"
         font="10px &quot;Arial&quot;">
        <tspan
           id="tspan3054">LoadingScreen</tspan>
      </text>
      <ellipse
         cx="500.5"
         cy="345.5986"
         rx="30"
         ry="20"
         style="fill:#5f00bf;fill-opacity:0.6;stroke:#5f00bf;stroke-width:2"
         id="ReadLevelFromFile"
         sodipodi:cx="500.5"
         sodipodi:cy="345.5986"
         sodipodi:rx="30"
         sodipodi:ry="20"
         d="m 530.5,345.5986 c 0,11.0457 -13.43146,20 -30,20 -16.56854,0 -30,-8.9543 -30,-20 0,-11.04569 13.43146,-20 30,-20 16.56854,0 30,8.95431 30,20 z" />
      <text
         id="text3057"
         x="500.5"
         y="379.0986"
         style="text-anchor:middle;fill:#000000;fill-opacity:0.6;stroke:none"
         font="10px &quot;Arial&quot;">
        <tspan
           id="tspan3059">ReadLevelFromFile</tspan>
      </text>
      <ellipse
         cx="362.5"
         cy="119.5"
         rx="30"
         ry="20"
         style="fill:#00bf85;fill-opacity:0.6;stroke:#00bf85;stroke-width:2"
         id="TimerAndScore"
         sodipodi:cx="362.5"
         sodipodi:cy="119.5"
         sodipodi:rx="30"
         sodipodi:ry="20"
         d="m 392.5,119.5 c 0,11.04569 -13.43146,20 -30,20 -16.56854,0 -30,-8.95431 -30,-20 0,-11.04569 13.43146,-20 30,-20 16.56854,0 30,8.95431 30,20 z" />
      <text
         id="text3062"
         x="362.5"
         y="153"
         style="text-anchor:middle;fill:#000000;fill-opacity:0.6;stroke:none"
         font="10px &quot;Arial&quot;">
        <tspan
           id="tspan3064">TimerAndScore</tspan>
      </text>
      <ellipse
         cx="237.5"
         cy="119.5"
         rx="30"
         ry="20"
         style="fill:#004cbf;fill-opacity:0.6;stroke:#004cbf;stroke-width:2"
         id="BoxCollisionScript"
         sodipodi:cx="237.5"
         sodipodi:cy="119.5"
         sodipodi:rx="30"
         sodipodi:ry="20"
         d="m 267.5,119.5 c 0,11.04569 -13.43146,20 -30,20 -16.56854,0 -30,-8.95431 -30,-20 0,-11.04569 13.43146,-20 30,-20 16.56854,0 30,8.95431 30,20 z" />
      <text
         id="text3067"
         x="237.5"
         y="153"
         style="text-anchor:middle;fill:#000000;fill-opacity:0.6;stroke:none"
         font="10px &quot;Arial&quot;">
        <tspan
           id="tspan3069">BoxCollisionScript</tspan>
      </text>
      <ellipse
         cx="302.5"
         cy="70.050003"
         rx="30"
         ry="20"
         style="fill:#00a2bf;fill-opacity:0.6;stroke:#00a2bf;stroke-width:2"
         id="ScoreScreen"
         sodipodi:cx="302.5"
         sodipodi:cy="70.050003"
         sodipodi:rx="30"
         sodipodi:ry="20"
         d="m 332.5,70.050003 c 0,11.045695 -13.43146,20 -30,20 -16.56854,0 -30,-8.954305 -30,-20 0,-11.045695 13.43146,-20 30,-20 16.56854,0 30,8.954305 30,20 z" />
      <text
         id="text3072"
         x="302.5"
         y="103.55"
         style="text-anchor:middle;fill:#000000;fill-opacity:0.6;stroke:none"
         font="10px &quot;Arial&quot;">
        <tspan
           id="tspan3074">ScoreScreen</tspan>
      </text>
      <ellipse
         cx="237.5"
         cy="276.5"
         rx="30"
         ry="20"
         style="fill:#bfac00;fill-opacity:0.6;stroke:#bfac00;stroke-width:2"
         id="GameSceneSequence"
         sodipodi:cx="237.5"
         sodipodi:cy="276.5"
         sodipodi:rx="30"
         sodipodi:ry="20"
         d="m 267.5,276.5 c 0,11.04569 -13.43146,20 -30,20 -16.56854,0 -30,-8.95431 -30,-20 0,-11.04569 13.43146,-20 30,-20 16.56854,0 30,8.95431 30,20 z" />
      <text
         id="text3077"
         x="237.5"
         y="310"
         style="text-anchor:middle;fill:#000000;fill-opacity:0.6;stroke:none"
         font="10px &quot;Arial&quot;">
        <tspan
           id="tspan3079">GameSceneSequence</tspan>
      </text>
      <ellipse
         cx="169.5"
         cy="231.59863"
         rx="30"
         ry="20"
         style="fill:#26bf00;fill-opacity:0.6;stroke:#26bf00;stroke-width:2"
         id="Rule"
         sodipodi:cx="169.5"
         sodipodi:cy="231.59863"
         sodipodi:rx="30"
         sodipodi:ry="20"
         d="m 199.5,231.59863 c 0,11.0457 -13.43146,20 -30,20 -16.56854,0 -30,-8.9543 -30,-20 0,-11.04569 13.43146,-20 30,-20 16.56854,0 30,8.95431 30,20 z" />
      <text
         id="text3082"
         x="168.5"
         y="265.09863"
         style="text-anchor:middle;fill:#000000;fill-opacity:0.6;stroke:none"
         font="10px &quot;Arial&quot;">
        <tspan
           id="tspan3084">Rule</tspan>
      </text>
      <ellipse
         cx="563.5"
         cy="231.5"
         rx="30"
         ry="20"
         style="fill:#0900bf;fill-opacity:0.6;stroke:#0900bf;stroke-width:2"
         id="BoxDesignScript"
         sodipodi:cx="563.5"
         sodipodi:cy="231.5"
         sodipodi:rx="30"
         sodipodi:ry="20"
         d="m 593.5,231.5 c 0,11.04569 -13.43146,20 -30,20 -16.56854,0 -30,-8.95431 -30,-20 0,-11.04569 13.43146,-20 30,-20 16.56854,0 30,8.95431 30,20 z" />
      <text
         id="text3087"
         x="563.5"
         y="265"
         style="text-anchor:middle;fill:#000000;fill-opacity:0.6;stroke:none"
         font="10px &quot;Arial&quot;">
        <tspan
           id="tspan3089">BoxDesignScript</tspan>
      </text>
    </g>
  </g>
</svg>
